<?xml version="1.0" encoding="utf-8"?>
<!-- Generator: Adobe Illustrator 26.0.0, SVG Export Plug-In . SVG Version: 6.00 Build 0)  -->
<svg version="1.1" id="Capa_1" xmlns="http://www.w3.org/2000/svg" xmlns:xlink="http://www.w3.org/1999/xlink" x="0px" y="0px"
	 viewBox="0 0 906.5 516.6" style="enable-background:new 0 0 906.5 516.6;" xml:space="preserve">
<style type="text/css">
	.st0{fill:none;stroke:#FFFFFF;stroke-miterlimit:10;}
	.st1{font-family:'AkiraExpanded-SuperBold';}
	.st2{font-size:59.0761px;}
	.st3{letter-spacing:2;}
	.st4{letter-spacing:1;}
	.st5{letter-spacing:3;}
	.st6{fill:#D3FF31;}
	.st7{font-size:49.7905px;}
	.st8{letter-spacing:-5;}
	.st9{letter-spacing:-2;}
	.st10{letter-spacing:5;}
	.st11{letter-spacing:-8;}
	.st12{letter-spacing:-1;}
</style>
<text transform="matrix(1 0 0 1 0.5 50.7222)" class="st0 st1 st2 st3">D</text>
<text transform="matrix(1 0 0 1 57.9307 50.7222)" class="st0 st1 st2 st3">e</text>
<text transform="matrix(1 0 0 1 107.3623 50.7222)" class="st0 st1 st2">s</text>
<text transform="matrix(1 0 0 1 159.6533 50.7222)" class="st0 st1 st2">a</text>
<text transform="matrix(1 0 0 1 220.375 50.7222)" class="st0 st1 st2 st3">r</text>
<text transform="matrix(1 0 0 1 277.0518 50.7222)" class="st0 st1 st2 st4">r</text>
<text transform="matrix(1 0 0 1 332.5981 50.7222)" class="st0 st1 st2 st3">o</text>
<text transform="matrix(1 0 0 1 390.0049 50.7222)" class="st0 st1 st2 st5">l</text>
<text transform="matrix(1 0 0 1 440.4775 50.7222)" class="st0 st1 st2">lo</text>
<text transform="matrix(1 0 0 1 0.5 90.3774)" class="st0 st1 st2 st3">D</text>
<text transform="matrix(1 0 0 1 57.9307 90.3774)" class="st0 st1 st2 st3">e</text>
<text transform="matrix(1 0 0 1 107.3623 90.3774)" class="st0 st1 st2">s</text>
<text transform="matrix(1 0 0 1 159.6533 90.3774)" class="st0 st1 st2">a</text>
<text transform="matrix(1 0 0 1 220.375 90.3774)" class="st0 st1 st2 st3">r</text>
<text transform="matrix(1 0 0 1 277.0518 90.3774)" class="st0 st1 st2 st4">r</text>
<text transform="matrix(1 0 0 1 332.5981 90.3774)" class="st0 st1 st2 st3">o</text>
<text transform="matrix(1 0 0 1 390.0049 90.3774)" class="st0 st1 st2 st5">l</text>
<text transform="matrix(1 0 0 1 440.4775 90.3774)" class="st0 st1 st2">lo</text>
<text transform="matrix(1 0 0 1 1.1045 131.2295)" class="st0 st1 st2 st3">D</text>
<text transform="matrix(1 0 0 1 58.5293 131.2295)" class="st0 st1 st2 st3">e</text>
<text transform="matrix(1 0 0 1 107.9668 131.2295)" class="st0 st1 st2">s</text>
<text transform="matrix(1 0 0 1 160.2578 131.2295)" class="st0 st1 st2">a</text>
<text transform="matrix(1 0 0 1 220.9795 131.2295)" class="st0 st1 st2 st3">r</text>
<text transform="matrix(1 0 0 1 277.6562 131.2295)" class="st0 st1 st2 st4">r</text>
<text transform="matrix(1 0 0 1 333.2021 131.2295)" class="st0 st1 st2 st3">o</text>
<text transform="matrix(1 0 0 1 390.6035 131.2295)" class="st0 st1 st2 st5">l</text>
<text transform="matrix(1 0 0 1 441.0762 131.2295)" class="st0 st1 st2">lo</text>
<text transform="matrix(1 0 0 1 0.5 171.4893)" class="st0 st1 st2 st3">D</text>
<text transform="matrix(1 0 0 1 57.9307 171.4893)" class="st0 st1 st2 st3">e</text>
<text transform="matrix(1 0 0 1 107.3623 171.4893)" class="st0 st1 st2">s</text>
<text transform="matrix(1 0 0 1 159.6533 171.4893)" class="st0 st1 st2">a</text>
<text transform="matrix(1 0 0 1 220.375 171.4893)" class="st0 st1 st2 st3">r</text>
<text transform="matrix(1 0 0 1 277.0518 171.4893)" class="st0 st1 st2 st4">r</text>
<text transform="matrix(1 0 0 1 332.5981 171.4893)" class="st0 st1 st2 st3">o</text>
<text transform="matrix(1 0 0 1 390.0049 171.4893)" class="st0 st1 st2 st5">l</text>
<text transform="matrix(1 0 0 1 440.4775 171.4893)" class="st0 st1 st2">lo</text>
<text transform="matrix(1 0 0 1 0.5 213.543)" class="st0 st1 st2 st3">D</text>
<text transform="matrix(1 0 0 1 57.9307 213.543)" class="st0 st1 st2 st3">e</text>
<text transform="matrix(1 0 0 1 107.3623 213.543)" class="st0 st1 st2">s</text>
<text transform="matrix(1 0 0 1 159.6533 213.543)" class="st0 st1 st2">a</text>
<text transform="matrix(1 0 0 1 220.375 213.543)" class="st0 st1 st2 st3">r</text>
<text transform="matrix(1 0 0 1 277.0518 213.543)" class="st0 st1 st2 st4">r</text>
<text transform="matrix(1 0 0 1 332.5981 213.543)" class="st0 st1 st2 st3">o</text>
<text transform="matrix(1 0 0 1 390.0049 213.543)" class="st0 st1 st2 st5">l</text>
<text transform="matrix(1 0 0 1 440.4775 213.543)" class="st0 st1 st2">lo</text>
<text transform="matrix(1 0 0 1 1.7026 253.8027)" class="st0 st1 st2 st3">D</text>
<text transform="matrix(1 0 0 1 59.1274 253.8027)" class="st0 st1 st2 st3">e</text>
<text transform="matrix(1 0 0 1 108.5649 253.8027)" class="st0 st1 st2">s</text>
<text transform="matrix(1 0 0 1 160.8564 253.8027)" class="st0 st1 st2">a</text>
<text transform="matrix(1 0 0 1 221.5776 253.8027)" class="st0 st1 st2 st3">r</text>
<text transform="matrix(1 0 0 1 278.2549 253.8027)" class="st0 st1 st2 st4">r</text>
<text transform="matrix(1 0 0 1 333.8008 253.8027)" class="st0 st1 st2 st3">o</text>
<text transform="matrix(1 0 0 1 391.2075 253.8027)" class="st0 st1 st2 st5">l</text>
<text transform="matrix(1 0 0 1 441.6738 253.8027)" class="st0 st1 st2">lo</text>
<text transform="matrix(1 0 0 1 1.1045 297.6641)" class="st0 st1 st2 st3">D</text>
<text transform="matrix(1 0 0 1 58.5293 297.6641)" class="st0 st1 st2 st3">e</text>
<text transform="matrix(1 0 0 1 107.9668 297.6641)" class="st0 st1 st2">s</text>
<text transform="matrix(1 0 0 1 160.2578 297.6641)" class="st0 st1 st2">a</text>
<text transform="matrix(1 0 0 1 220.9795 297.6641)" class="st0 st1 st2 st3">r</text>
<text transform="matrix(1 0 0 1 277.6562 297.6641)" class="st0 st1 st2 st4">r</text>
<text transform="matrix(1 0 0 1 333.2021 297.6641)" class="st0 st1 st2 st3">o</text>
<text transform="matrix(1 0 0 1 390.6035 297.6641)" class="st0 st1 st2 st5">l</text>
<text transform="matrix(1 0 0 1 441.0762 297.6641)" class="st0 st1 st2">lo</text>
<text transform="matrix(1 0 0 1 1.1045 132.354)" class="st6 st1 st7">la</text>
<text transform="matrix(1 0 0 1 115.8164 132.354)" class="st6 st1 st7 st8">p</text>
<text transform="matrix(1 0 0 1 154.0537 132.354)" class="st6 st1 st7 st9">a</text>
<text transform="matrix(1 0 0 1 202.1689 132.354)" class="st6 st1 st7 st5">g</text>
<text transform="matrix(1 0 0 1 252.4023 132.354)" class="st6 st1 st7 st10">i</text>
<text transform="matrix(1 0 0 1 271.9004 132.354)" class="st6 st1 st7">na</text>
<text transform="matrix(1 0 0 1 1.1045 192.1064)" class="st6 st1 st7 st4">q</text>
<text transform="matrix(1 0 0 1 49.3154 192.1064)" class="st6 st1 st7 st5">u</text>
<text transform="matrix(1 0 0 1 99.6924 192.1064)" class="st6 st1 st7">e</text>
<text transform="matrix(1 0 0 1 163.2197 192.1064)" class="st6 st1 st7 st10">n</text>
<text transform="matrix(1 0 0 1 215.2773 192.1064)" class="st6 st1 st7 st3">e</text>
<text transform="matrix(1 0 0 1 257.2603 192.1064)" class="st6 st1 st7 st3">c</text>
<text transform="matrix(1 0 0 1 305.6211 192.1064)" class="st6 st1 st7 st4">e</text>
<text transform="matrix(1 0 0 1 347.2925 192.1064)" class="st6 st1 st7 st4">s</text>
<text transform="matrix(1 0 0 1 395.043 192.1064)" class="st6 st1 st7 st3">i</text>
<text transform="matrix(1 0 0 1 411.7715 192.1064)" class="st6 st1 st7 st11">t</text>
<text transform="matrix(1 0 0 1 446.3467 192.1064)" class="st6 st1 st7 st12">a</text>
<text transform="matrix(1 0 0 1 495.4316 192.1064)" class="st6 st1 st7">s</text>
</svg>
