<svg id="Capa_1" data-name="Capa 1" xmlns="http://www.w3.org/2000/svg" viewBox="0 0 542.79 309.5"><defs><style>.cls-1,.cls-10,.cls-11,.cls-12,.cls-13,.cls-14,.cls-15,.cls-16,.cls-17,.cls-18,.cls-2,.cls-3,.cls-4,.cls-5,.cls-6,.cls-7,.cls-8,.cls-9{isolation:isolate;font-family:AkiraExpanded-SuperBold, Akira Expanded;font-weight:700;}.cls-1,.cls-2,.cls-3,.cls-4,.cls-5,.cls-6,.cls-7{font-size:59.08px;fill:none;stroke:#fff;stroke-miterlimit:10;}.cls-1{letter-spacing:0.05em;}.cls-2{letter-spacing:0.04em;}.cls-3{letter-spacing:-0.01em;}.cls-5{letter-spacing:0.05em;}.cls-6{letter-spacing:0.03em;}.cls-7{letter-spacing:0.06em;}.cls-10,.cls-11,.cls-12,.cls-13,.cls-14,.cls-15,.cls-16,.cls-17,.cls-18,.cls-8,.cls-9{font-size:49.79px;fill:#d3ff31;}.cls-9{letter-spacing:-0.12em;}.cls-10{letter-spacing:-0.05em;}.cls-11{letter-spacing:0.08em;}.cls-12{letter-spacing:0.11em;}.cls-13{letter-spacing:0.04em;}.cls-14{letter-spacing:0.12em;}.cls-15{letter-spacing:0.05em;}.cls-16{letter-spacing:0.05em;}.cls-17{letter-spacing:-0.18em;}.cls-18{letter-spacing:-0.04em;}</style></defs><text class="cls-1" transform="translate(0.5 50.72)">D</text><text class="cls-2" transform="translate(57.93 50.72)">e</text><text class="cls-3" transform="translate(107.36 50.72)">s</text><text class="cls-4" transform="translate(159.65 50.72)">a</text><text class="cls-5" transform="translate(220.38 50.72)">r</text><text class="cls-6" transform="translate(277.05 50.72)">r</text><text class="cls-1" transform="translate(332.6 50.72)">o</text><text class="cls-7" transform="translate(390 50.72)">l</text><text class="cls-4" transform="translate(440.48 50.72)">lo</text><text class="cls-1" transform="translate(0.5 90.38)">D</text><text class="cls-2" transform="translate(57.93 90.38)">e</text><text class="cls-3" transform="translate(107.36 90.38)">s</text><text class="cls-4" transform="translate(159.65 90.38)">a</text><text class="cls-5" transform="translate(220.38 90.38)">r</text><text class="cls-6" transform="translate(277.05 90.38)">r</text><text class="cls-1" transform="translate(332.6 90.38)">o</text><text class="cls-7" transform="translate(390 90.38)">l</text><text class="cls-4" transform="translate(440.48 90.38)">lo</text><text class="cls-1" transform="translate(1.1 131.23)">D</text><text class="cls-2" transform="translate(58.53 131.23)">e</text><text class="cls-3" transform="translate(107.97 131.23)">s</text><text class="cls-4" transform="translate(160.26 131.23)">a</text><text class="cls-5" transform="translate(220.98 131.23)">r</text><text class="cls-6" transform="translate(277.66 131.23)">r</text><text class="cls-1" transform="translate(333.2 131.23)">o</text><text class="cls-7" transform="translate(390.6 131.23)">l</text><text class="cls-4" transform="translate(441.08 131.23)">lo</text><text class="cls-1" transform="translate(0.5 171.49)">D</text><text class="cls-2" transform="translate(57.93 171.49)">e</text><text class="cls-3" transform="translate(107.36 171.49)">s</text><text class="cls-4" transform="translate(159.65 171.49)">a</text><text class="cls-5" transform="translate(220.38 171.49)">r</text><text class="cls-6" transform="translate(277.05 171.49)">r</text><text class="cls-1" transform="translate(332.6 171.49)">o</text><text class="cls-7" transform="translate(390 171.49)">l</text><text class="cls-4" transform="translate(440.48 171.49)">lo</text><text class="cls-1" transform="translate(0.5 213.54)">D</text><text class="cls-2" transform="translate(57.93 213.54)">e</text><text class="cls-3" transform="translate(107.36 213.54)">s</text><text class="cls-4" transform="translate(159.65 213.54)">a</text><text class="cls-5" transform="translate(220.38 213.54)">r</text><text class="cls-6" transform="translate(277.05 213.54)">r</text><text class="cls-1" transform="translate(332.6 213.54)">o</text><text class="cls-7" transform="translate(390 213.54)">l</text><text class="cls-4" transform="translate(440.48 213.54)">lo</text><text class="cls-1" transform="translate(1.7 253.8)">D</text><text class="cls-2" transform="translate(59.13 253.8)">e</text><text class="cls-3" transform="translate(108.56 253.8)">s</text><text class="cls-4" transform="translate(160.86 253.8)">a</text><text class="cls-5" transform="translate(221.58 253.8)">r</text><text class="cls-6" transform="translate(278.25 253.8)">r</text><text class="cls-1" transform="translate(333.8 253.8)">o</text><text class="cls-7" transform="translate(391.21 253.8)">l</text><text class="cls-4" transform="translate(441.67 253.8)">lo</text><text class="cls-1" transform="translate(1.1 297.66)">D</text><text class="cls-2" transform="translate(58.53 297.66)">e</text><text class="cls-3" transform="translate(107.97 297.66)">s</text><text class="cls-4" transform="translate(160.26 297.66)">a</text><text class="cls-5" transform="translate(220.98 297.66)">r</text><text class="cls-6" transform="translate(277.66 297.66)">r</text><text class="cls-1" transform="translate(333.2 297.66)">o</text><text class="cls-7" transform="translate(390.6 297.66)">l</text><text class="cls-4" transform="translate(441.08 297.66)">lo</text><text class="cls-8" transform="translate(1.1 132.35)">la</text><text class="cls-9" transform="translate(115.82 132.35)">p</text><text class="cls-10" transform="translate(154.05 132.35)">a</text><text class="cls-11" transform="translate(202.17 132.35)">g</text><text class="cls-12" transform="translate(252.4 132.35)">i</text><text class="cls-8" transform="translate(271.9 132.35)">na</text><text class="cls-13" transform="translate(1.1 192.1)">q</text><text class="cls-11" transform="translate(49.32 192.1)">u</text><text class="cls-8" transform="translate(99.69 192.1)">e</text><text class="cls-14" transform="translate(163.22 192.1)">n</text><text class="cls-15" transform="translate(215.28 192.1)">e</text><text class="cls-16" transform="translate(257.26 192.1)">c</text><text class="cls-13" transform="translate(305.62 192.1)">e</text><text class="cls-13" transform="translate(347.29 192.1)">s</text><text class="cls-16" transform="translate(395.04 192.1)">i</text><text class="cls-17" transform="translate(411.77 192.1)">t</text><text class="cls-18" transform="translate(446.35 192.1)">a</text><text class="cls-8" transform="translate(495.43 192.1)">s</text></svg>