<?xml version="1.0" encoding="utf-8"?>
<!-- Generator: Adobe Illustrator 26.0.0, SVG Export Plug-In . SVG Version: 6.00 Build 0)  -->
<svg version="1.1" id="Capa_1" xmlns="http://www.w3.org/2000/svg" xmlns:xlink="http://www.w3.org/1999/xlink" x="0px" y="0px"
	 viewBox="0 0 1255.7 1526" style="enable-background:new 0 0 1255.7 1526;" xml:space="preserve">
<style type="text/css">
	.st0{fill:none;stroke:#FFFFFF;stroke-miterlimit:10;}
	.st1{font-family:'AkiraExpanded-SuperBold';}
	.st2{font-size:52.8744px;}
	.st3{letter-spacing:2;}
	.st4{letter-spacing:1;}
	.st5{fill:#D3FF31;}
	.st6{font-size:44.5657px;}
	.st7{letter-spacing:-4;}
	.st8{letter-spacing:-1;}
	.st9{letter-spacing:3;}
	.st10{letter-spacing:4;}
	.st11{letter-spacing:-7;}
</style>
<text transform="matrix(1 0 0 1 64.1411 89.8271)" class="st0 st1 st2 st3">D</text>
<text transform="matrix(1 0 0 1 115.5425 89.8271)" class="st0 st1 st2 st4">e</text>
<text transform="matrix(1 0 0 1 159.791 89.8271)" class="st0 st1 st2">s</text>
<text transform="matrix(1 0 0 1 206.5938 89.8271)" class="st0 st1 st2">a</text>
<text transform="matrix(1 0 0 1 260.9409 89.8271)" class="st0 st1 st2 st3">r</text>
<text transform="matrix(1 0 0 1 311.6704 89.8271)" class="st0 st1 st2 st4">r</text>
<text transform="matrix(1 0 0 1 361.3887 89.8271)" class="st0 st1 st2 st3">o</text>
<text transform="matrix(1 0 0 1 412.7681 89.8271)" class="st0 st1 st2 st3">l</text>
<text transform="matrix(1 0 0 1 457.9404 89.8271)" class="st0 st1 st2">lo</text>
<text transform="matrix(1 0 0 1 64.1411 125.3203)" class="st0 st1 st2 st3">D</text>
<text transform="matrix(1 0 0 1 115.5425 125.3203)" class="st0 st1 st2 st4">e</text>
<text transform="matrix(1 0 0 1 159.791 125.3203)" class="st0 st1 st2">s</text>
<text transform="matrix(1 0 0 1 206.5938 125.3203)" class="st0 st1 st2">a</text>
<text transform="matrix(1 0 0 1 260.9409 125.3203)" class="st0 st1 st2 st3">r</text>
<text transform="matrix(1 0 0 1 311.6704 125.3203)" class="st0 st1 st2 st4">r</text>
<text transform="matrix(1 0 0 1 361.3887 125.3203)" class="st0 st1 st2 st3">o</text>
<text transform="matrix(1 0 0 1 412.7681 125.3203)" class="st0 st1 st2 st3">l</text>
<text transform="matrix(1 0 0 1 457.9404 125.3203)" class="st0 st1 st2">lo</text>
<text transform="matrix(1 0 0 1 64.6802 161.8892)" class="st0 st1 st2 st3">D</text>
<text transform="matrix(1 0 0 1 116.0801 161.8892)" class="st0 st1 st2 st4">e</text>
<text transform="matrix(1 0 0 1 160.3286 161.8892)" class="st0 st1 st2">s</text>
<text transform="matrix(1 0 0 1 207.1313 161.8892)" class="st0 st1 st2">a</text>
<text transform="matrix(1 0 0 1 261.48 161.8892)" class="st0 st1 st2 st3">r</text>
<text transform="matrix(1 0 0 1 312.208 161.8892)" class="st0 st1 st2 st4">r</text>
<text transform="matrix(1 0 0 1 361.9263 161.8892)" class="st0 st1 st2 st3">o</text>
<text transform="matrix(1 0 0 1 413.3052 161.8892)" class="st0 st1 st2 st3">l</text>
<text transform="matrix(1 0 0 1 458.4785 161.8892)" class="st0 st1 st2">lo</text>
<text transform="matrix(1 0 0 1 64.1411 197.9194)" class="st0 st1 st2 st3">D</text>
<text transform="matrix(1 0 0 1 115.5425 197.9194)" class="st0 st1 st2 st4">e</text>
<text transform="matrix(1 0 0 1 159.791 197.9194)" class="st0 st1 st2">s</text>
<text transform="matrix(1 0 0 1 206.5938 197.9194)" class="st0 st1 st2">a</text>
<text transform="matrix(1 0 0 1 260.9409 197.9194)" class="st0 st1 st2 st3">r</text>
<text transform="matrix(1 0 0 1 311.6704 197.9194)" class="st0 st1 st2 st4">r</text>
<text transform="matrix(1 0 0 1 361.3887 197.9194)" class="st0 st1 st2 st3">o</text>
<text transform="matrix(1 0 0 1 412.7681 197.9194)" class="st0 st1 st2 st3">l</text>
<text transform="matrix(1 0 0 1 457.9404 197.9194)" class="st0 st1 st2">lo</text>
<text transform="matrix(1 0 0 1 64.1411 235.5645)" class="st0 st1 st2 st3">D</text>
<text transform="matrix(1 0 0 1 115.5425 235.5645)" class="st0 st1 st2 st4">e</text>
<text transform="matrix(1 0 0 1 159.791 235.5645)" class="st0 st1 st2">s</text>
<text transform="matrix(1 0 0 1 206.5938 235.5645)" class="st0 st1 st2">a</text>
<text transform="matrix(1 0 0 1 260.9409 235.5645)" class="st0 st1 st2 st3">r</text>
<text transform="matrix(1 0 0 1 311.6704 235.5645)" class="st0 st1 st2 st4">r</text>
<text transform="matrix(1 0 0 1 361.3887 235.5645)" class="st0 st1 st2 st3">o</text>
<text transform="matrix(1 0 0 1 412.7681 235.5645)" class="st0 st1 st2 st3">l</text>
<text transform="matrix(1 0 0 1 457.9404 235.5645)" class="st0 st1 st2">lo</text>
<text transform="matrix(1 0 0 1 65.2168 271.5962)" class="st0 st1 st2 st3">D</text>
<text transform="matrix(1 0 0 1 116.6177 271.5962)" class="st0 st1 st2 st4">e</text>
<text transform="matrix(1 0 0 1 160.8662 271.5962)" class="st0 st1 st2">s</text>
<text transform="matrix(1 0 0 1 207.6694 271.5962)" class="st0 st1 st2">a</text>
<text transform="matrix(1 0 0 1 262.0176 271.5962)" class="st0 st1 st2 st3">r</text>
<text transform="matrix(1 0 0 1 312.7461 271.5962)" class="st0 st1 st2 st4">r</text>
<text transform="matrix(1 0 0 1 362.4634 271.5962)" class="st0 st1 st2 st3">o</text>
<text transform="matrix(1 0 0 1 413.8428 271.5962)" class="st0 st1 st2 st3">l</text>
<text transform="matrix(1 0 0 1 459.0156 271.5962)" class="st0 st1 st2">lo</text>
<text transform="matrix(1 0 0 1 64.6802 310.853)" class="st0 st1 st2 st3">D</text>
<text transform="matrix(1 0 0 1 116.0801 310.853)" class="st0 st1 st2 st4">e</text>
<text transform="matrix(1 0 0 1 160.3286 310.853)" class="st0 st1 st2">s</text>
<text transform="matrix(1 0 0 1 207.1313 310.853)" class="st0 st1 st2">a</text>
<text transform="matrix(1 0 0 1 261.48 310.853)" class="st0 st1 st2 st3">r</text>
<text transform="matrix(1 0 0 1 312.208 310.853)" class="st0 st1 st2 st4">r</text>
<text transform="matrix(1 0 0 1 361.9263 310.853)" class="st0 st1 st2 st3">o</text>
<text transform="matrix(1 0 0 1 413.3052 310.853)" class="st0 st1 st2 st3">l</text>
<text transform="matrix(1 0 0 1 458.4785 310.853)" class="st0 st1 st2">lo</text>
<text transform="matrix(1 0 0 1 64.6802 162.895)" class="st5 st1 st6">la </text>
<text transform="matrix(1 0 0 1 167.3525 162.895)" class="st5 st1 st6 st7">p</text>
<text transform="matrix(1 0 0 1 201.5815 162.895)" class="st5 st1 st6 st8">a</text>
<text transform="matrix(1 0 0 1 244.646 162.895)" class="st5 st1 st6 st9">g</text>
<text transform="matrix(1 0 0 1 289.6055 162.895)" class="st5 st1 st6 st10">i</text>
<text transform="matrix(1 0 0 1 307.0566 162.895)" class="st5 st1 st6">na </text>
<text transform="matrix(1 0 0 1 64.6802 216.3765)" class="st5 st1 st6 st4">q</text>
<text transform="matrix(1 0 0 1 107.8315 216.3765)" class="st5 st1 st6 st9">u</text>
<text transform="matrix(1 0 0 1 152.9233 216.3765)" class="st5 st1 st6">e </text>
<text transform="matrix(1 0 0 1 209.7832 216.3765)" class="st5 st1 st6 st10">n</text>
<text transform="matrix(1 0 0 1 256.376 216.3765)" class="st5 st1 st6 st4">e</text>
<text transform="matrix(1 0 0 1 293.9561 216.3765)" class="st5 st1 st6 st4">c</text>
<text transform="matrix(1 0 0 1 337.2417 216.3765)" class="st5 st1 st6 st4">e</text>
<text transform="matrix(1 0 0 1 374.5361 216.3765)" class="st5 st1 st6 st4">s</text>
<text transform="matrix(1 0 0 1 417.2788 216.3765)" class="st5 st1 st6 st4">i</text>
<text transform="matrix(1 0 0 1 432.251 216.3765)" class="st5 st1 st6 st11">t</text>
<text transform="matrix(1 0 0 1 463.1953 216.3765)" class="st5 st1 st6 st8">a</text>
<text transform="matrix(1 0 0 1 507.1313 216.3765)" class="st5 st1 st6">s</text>
</svg>
